<svg xmlns="http://www.w3.org/2000/svg" viewBox="0 0 300 200" xmlns:v="https://vecta.io/nano"><path d="M286 134.54c-16.17-36.88-40.13-39.16-42.7-39.3l-64.2-7.59 80.22-9.49a3.47 3.47 0 1 0-.81-6.89L149.6 84.16 42.36 71.47a3.46 3.46 0 1 0-.81 6.88l78.55 9.3L57.62 95c-2.57.14-26.53 2.43-42.7 39.3a3.47 3.47 0 1 0 6.35 2.78C36.12 103.26 57.13 102 58 102h.32l91.29-10.8 93 11h.32c.21 0 21.73 1 36.72 35.16a3.47 3.47 0 0 0 6.35-2.78z" fill="#c1c9cf"/><path d="M270.25 70.83a2.82 2.82 0 1 1 0 5.63h-6.59l.27.85a50.2 50.2 0 1 1-96 .9l.11-.38-.28-.27A25.28 25.28 0 0 0 133 77l-.3.28.12.39A50.2 50.2 0 1 1 37 77.31l.26-.85h-7.7a2.82 2.82 0 1 1 0-5.63h10l.18-.36a50.18 50.18 0 0 1 90.22 0l.35.72.63-.49a31.36 31.36 0 0 1 38.83.43l.64.51.35-.74a50.18 50.18 0 0 1 90.43-.46l.18.36zm-9.61 21.65a44.57 44.57 0 1 0-44.56 44.57 44.62 44.62 0 0 0 44.56-44.57zm-131.24 0a44.57 44.57 0 1 0-44.57 44.57 44.62 44.62 0 0 0 44.57-44.57z" fill="#fff"/><path d="M171.51 92.48a44.57 44.57 0 1 1 44.57 44.57 44.63 44.63 0 0 1-44.57-44.57zm1.3 0a43.27 43.27 0 1 0 43.27-43.27 43.31 43.31 0 0 0-43.27 43.27zm-44.71 0a43.27 43.27 0 1 0-43.27 43.26 43.32 43.32 0 0 0 43.27-43.26zM84.83 47.91a44.57 44.57 0 1 1-44.56 44.57 44.62 44.62 0 0 1 44.56-44.57zm131.25-5.63a50.51 50.51 0 0 0-45.33 28.65l-.35.74-.64-.51a31.36 31.36 0 0 0-38.83-.43l-.63.49-.3-.72a50.18 50.18 0 0 0-90.22 0l-.18.36h-10a2.82 2.82 0 1 0 0 5.63h7.69l-.26.85a50.19 50.19 0 1 0 95.8.33l-.12-.39.29-.28a25.28 25.28 0 0 1 34.82.59l.28.27-.11.38a50.19 50.19 0 1 0 96-.9l-.27-.85h6.59a2.82 2.82 0 1 0 0-5.63h-8.89l-.18-.36a50.58 50.58 0 0 0-45.16-28.22zM166.6 78.22a24 24 0 0 0-32.45-.56 51.5 51.5 0 1 1-98.66.11h-5.93a4.12 4.12 0 0 1 0-8.24h9.18a51.48 51.48 0 0 1 92-.3 32.65 32.65 0 0 1 39.16.41 51.48 51.48 0 0 1 92.24-.11h8.08a4.12 4.12 0 1 1 0 8.24h-4.82a51.5 51.5 0 1 1-98.83.45z" fill="#376672"/><path d="M156.3 157.27l-1.49 1.65 6.72 6.41h-22.06l6.72-6.41-1.49-1.65-9.62 9.19 9.62 9.18 1.49-1.64-6.73-6.42h22.08l-6.73 6.42 1.49 1.64 9.63-9.18-9.63-9.19z" fill="#597f8c"/><path d="M132.9 42.12h1.3v1.5h-1.3zm1.3 119.09h-1.3v-2.94h1.3zm0-5.88h-1.3v-2.94h1.3zm0-5.88h-1.3v-2.94h1.3zm0-5.88h-1.3v-2.94h1.3zm0-5.88h-1.3v-2.94h1.3zm0-5.88h-1.3v-2.94h1.3zm0-5.88h-1.3V123h1.3zm0-5.88h-1.3v-2.94h1.3zm0-5.88h-1.3v-2.94h1.3zm0-5.88h-1.3v-2.94h1.3zm0-5.88h-1.3v-2.94h1.3zm0-5.88h-1.3v-2.94h1.3zm0-5.88h-1.3v-2.94h1.3zm0-5.88h-1.3v-2.94h1.3zm0-5.87h-1.3V76h1.3zm0-5.88h-1.3v-2.94h1.3zm0-5.88h-1.3V64.2h1.3zm0-5.88h-1.3v-2.94h1.3zm0-5.88h-1.3v-2.94h1.3zm0-5.88h-1.3v-2.94h1.3zm-1.3 114.65h1.3v1.5h-1.3zm33.8-122.03h1.3v1.5h-1.3zm1.3 119.09h-1.3v-2.94h1.3zm0-5.88h-1.3v-2.94h1.3zm0-5.88h-1.3v-2.94h1.3zm0-5.88h-1.3v-2.94h1.3zm0-5.88h-1.3v-2.94h1.3zm0-5.88h-1.3v-2.94h1.3zm0-5.88h-1.3V123h1.3zm0-5.88h-1.3v-2.94h1.3zm0-5.88h-1.3v-2.94h1.3zm0-5.88h-1.3v-2.94h1.3zm0-5.88h-1.3v-2.94h1.3zm0-5.88h-1.3v-2.94h1.3zm0-5.88h-1.3v-2.94h1.3zm0-5.88h-1.3v-2.94h1.3zm0-5.87h-1.3V76h1.3zm0-5.9h-1.3v-2.92h1.3zm0-5.88h-1.3V64.2h1.3zm0-5.88h-1.3v-2.92h1.3zm0-5.88h-1.3v-2.92h1.3zm0-5.88h-1.3v-2.92h1.3zm-1.3 114.67h1.3v1.5h-1.3z" fill="#376672"/></svg>