<svg xmlns="http://www.w3.org/2000/svg" xmlns:xlink="http://www.w3.org/1999/xlink" viewBox="0 0 289.8 54.4" xmlns:v="https://vecta.io/nano"><defs><path id="A" d="M3.3 5.5h284.6v81.1H3.3z"/></defs><clipPath id="B"><use xlink:href="#A"/></clipPath><g clip-path="url(#B)" fill="#222221"><path d="M19 28H6.6v17.3H19c5.8 0 9.5-3.2 9.5-8.7S24.8 28 19 28m-.5-19.3h-12v16.4h12c5.1 0 9.4-2.4 9.4-8.2s-4.3-8.2-9.4-8.2m.9 39.4h-16V5.9h15.5c7 0 12.2 4.1 12.2 11 .2 4.3-2.5 8.1-6.6 9.5 4.4 1.4 7.4 5.6 7.2 10.2 0 7.5-5 11.5-12.3 11.5M61.7 8.7H49.3v17.1h12.5c5.5 0 9.3-2.7 9.3-8.5s-3.9-8.6-9.4-8.6m-.8 20H49.3v19.5h-3.2V5.9h16.1c6.9 0 12.1 4 12.1 11.3 0 6.3-3.8 10.4-9.7 11.4l10.2 19.5H71L60.9 28.7zM88 48.1h3.2V5.9H88v42.2zm21-42.2h3.2v39.4h22.4v2.8H109V5.9zm38.6 0h3.2v39.4h22.4v2.8h-25.6V5.9zm38.6 0h25.6v2.8h-22.4v16.7h19.1v2.9h-19.1v17h22.4v2.8h-25.6V5.9zm38.7 42.2v-6.9l15.8-18.3c1.6-1.8 2.2-3.1 2.2-5.1 0-3.1-1.8-5.3-5.1-5.3-2.6 0-5.2 1.3-5.2 5.4h-7.7c0-7.7 5.6-12.3 12.9-12.3 7.5 0 12.8 4.7 12.8 12.3 0 4.1-1.6 6.3-4.5 9.7l-11.8 13.7h16.3v6.9h-25.7zm59.2-6v6h-7.4v-6h-17.2v-7.3L274 5.9h8.4l-14.5 28.9h8.8v-7.9h7.4v7.9h3.9v7.3h-3.9z"/></g></svg>