<svg xmlns="http://www.w3.org/2000/svg" viewBox="0 0 300 200" xmlns:v="https://vecta.io/nano"><path d="M297.94 134.61c-16.17-36.88-40.13-39.16-42.69-39.3l-64.16-7.59 80.23-9.49a3.47 3.47 0 0 0-.81-6.89L161.6 84.23 54.36 71.54a3.46 3.46 0 1 0-.82 6.88l78.56 9.3-62.49 7.39c-2.56.14-26.52 2.43-42.69 39.3a3.47 3.47 0 1 0 6.35 2.8C48.12 103.33 69.13 102.07 70 102h.31l91.3-10.8 93 11h.31c.22 0 21.73 1 36.73 35.16a3.47 3.47 0 0 0 3.17 2.08 3.41 3.41 0 0 0 1.39-.3 3.45 3.45 0 0 0 1.73-4.53z" fill="#c1c9cf"/><path d="M282.25 70.89a2.82 2.82 0 1 1 0 5.63h-6.59l.27.85a50.2 50.2 0 1 1-96 .9l.11-.38-.28-.27A25.28 25.28 0 0 0 145 77l-.3.28.12.39a50.2 50.2 0 1 1-95.82-.3l.26-.85h-7.7a2.82 2.82 0 1 1 0-5.63h10l.18-.36a50.18 50.18 0 0 1 90.22 0l.35.72.63-.49a31.36 31.36 0 0 1 38.83.43l.64.51.35-.74a50.18 50.18 0 0 1 90.43-.46l.18.36zm-9.61 21.65a44.57 44.57 0 1 0-44.56 44.57 44.62 44.62 0 0 0 44.56-44.57zm-131.24 0a44.57 44.57 0 1 0-44.57 44.57 44.62 44.62 0 0 0 44.57-44.57z" fill="#fff"/><path d="M183.51 92.54a44.57 44.57 0 1 1 44.57 44.57 44.63 44.63 0 0 1-44.57-44.57zm1.3 0a43.27 43.27 0 1 0 43.27-43.27 43.31 43.31 0 0 0-43.27 43.27zm-44.71 0a43.27 43.27 0 1 0-43.27 43.26 43.32 43.32 0 0 0 43.27-43.26zM96.83 48a44.57 44.57 0 1 1-44.56 44.54A44.62 44.62 0 0 1 96.83 48zm131.25-5.66A50.51 50.51 0 0 0 182.75 71l-.35.74-.64-.51a31.36 31.36 0 0 0-38.83-.43l-.63.49-.35-.72a50.18 50.18 0 0 0-90.22 0l-.18.36h-10a2.82 2.82 0 1 0 0 5.63h7.69l-.26.85a50.19 50.19 0 1 0 95.8.33l-.12-.39.34-.35a25.28 25.28 0 0 1 34.82.59l.28.27-.11.38a50.19 50.19 0 1 0 96-.9l-.27-.85h6.59a2.82 2.82 0 1 0 0-5.63h-8.89l-.18-.36a50.58 50.58 0 0 0-45.16-28.16zM178.6 78.28a24 24 0 0 0-32.45-.56 51.5 51.5 0 1 1-98.66.11h-5.93a4.12 4.12 0 0 1 0-8.24h9.18a51.48 51.48 0 0 1 92-.3 32.65 32.65 0 0 1 39.16.41 51.48 51.48 0 0 1 92.24-.11h8.08a4.12 4.12 0 1 1 0 8.24h-4.82a51.5 51.5 0 1 1-98.83.45z" fill="#376672"/><path d="M260.61 157.15l-1.52 1.66 6.87 6.5h-75.8l6.87-6.5-1.52-1.66-9.84 9.3 9.84 9.31 1.52-1.67-6.87-6.5h75.8l-6.87 6.5 1.52 1.67 9.84-9.31-9.84-9.3zM12.75 130.53V54.66l6.51 6.88 1.66-1.53-9.3-9.84-9.31 9.84 1.67 1.53 6.5-6.88v75.86l-6.5-6.88-1.67 1.53 9.31 9.84 9.3-9.84-1.66-1.53-6.51 6.89z" fill="#597f8c"/><path d="M146.64 48h1.49v1.3h-1.49zm-2.97 1.3h-3V48h3zm-5.94 0h-3V48h3zm-5.93 0h-3V48h3zm-5.94 0h-3V48h3zm-5.93 0h-3V48h3zm-5.94 0h-3V48h3zm-5.93 0h-3V48h3zm-5.94 0h-3V48h3zm-5.94 0h-3V48h3zm-5.93 0h-3V48h3zm-5.94 0h-3V48h3zm-5.93 0h-3V48h3zm-5.94 0h-3V48h3zm-5.93 0h-3V48h3zm-5.94 0h-3V48h3zm-5.93 0h-3V48h3zm-5.94 0h-3V48h3zm-5.93 0h-3V48h3zm-5.94 0h-3V48h3zm-5.93 0h-3V48h3zm-5.9 0h-3V48h3zm-6 0h-3V48h3zM11.6 48h1.49v1.3H11.6zm135.04 87.76h1.49v1.3h-1.49zm-2.97 1.3h-3v-1.3h3zm-5.94 0h-3v-1.3h3zm-5.93 0h-3v-1.3h3zm-5.94 0h-3v-1.3h3zm-5.93 0h-3v-1.3h3zm-5.94 0h-3v-1.3h3zm-5.93 0h-3v-1.3h3zm-5.94 0h-3v-1.3h3zm-5.94 0h-3v-1.3h3zm-5.93 0h-3v-1.3h3zm-5.94 0h-3v-1.3h3zm-5.93 0h-3v-1.3h3zm-5.94 0h-3v-1.3h3zm-5.93 0h-3v-1.3h3zm-5.94 0h-3v-1.3h3zm-5.93 0h-3v-1.3h3zm-5.94 0h-3v-1.3h3zm-5.93 0h-3v-1.3h3zm-5.94 0h-3v-1.3h3zm-5.93 0h-3v-1.3h3zm-5.94 0H22v-1.3h3zm-5.93 0h-3v-1.3h3zm-7.43-1.3h1.49v1.3H11.6zm171.96-93.3h1.3v1.5h-1.3zm1.3 118.73h-1.3v-2.93h1.3zm0-5.86h-1.3v-2.93h1.3zm0-5.86h-1.3v-2.93h1.3zm0-5.87h-1.3v-2.93h1.3zm0-5.86h-1.3v-2.93h1.3zm0-5.86h-1.3V129h1.3zm0-5.86h-1.3v-2.93h1.3zm0-5.86h-1.3v-2.93h1.3zm0-5.86h-1.3v-2.94h1.3zm0-5.87h-1.3v-2.93h1.3zm0-5.86h-1.3v-2.93h1.3zm0-5.86h-1.3v-2.93h1.3zm0-5.86h-1.3v-2.93h1.3zm0-5.86h-1.3v-2.93h1.3zm0-5.86h-1.3v-2.94h1.3zm0-5.87h-1.3v-2.93h1.3zm0-5.86h-1.3v-2.93h1.3zm0-5.86h-1.3v-2.93h1.3zm0-5.86h-1.3v-2.93h1.3zm0-5.86h-1.3v-2.93h1.3zm-1.3 114.3h1.3v1.5h-1.3zm87.72-121.71h1.3v1.5h-1.3zm1.3 118.89h-1.3v-2.94h1.3zm0-5.87h-1.3v-2.94h1.3zm0-5.87h-1.3v-2.94h1.3zm0-5.87h-1.3v-2.94h1.3zm0-5.87h-1.3v-2.94h1.3zm0-5.87h-1.3V129h1.3zm0-5.87h-1.3v-2.93h1.3zm0-5.87h-1.3v-2.94h1.3zm0-5.87h-1.3v-2.93h1.3zm0-5.87h-1.3v-2.93h1.3zm0-5.87h-1.3v-2.93h1.3zm0-5.87h-1.3V93.8h1.3zm0-5.87h-1.3v-2.93h1.3zm0-5.87h-1.3v-2.93h1.3zm0-5.87h-1.3v-2.93h1.3zm0-5.87h-1.3v-2.93h1.3zm0-5.87h-1.3v-2.93h1.3zm0-5.87h-1.3v-2.93h1.3zm0-5.86h-1.3v-2.94h1.3zm0-5.88h-1.3v-2.93h1.3zm-1.3 114.46h1.3v1.5h-1.3z" fill="#376672"/></svg>