<svg xmlns="http://www.w3.org/2000/svg" viewBox="0 0 300 200" xmlns:v="https://vecta.io/nano"><path d="M256.68 157.17l-1.53 1.66 6.91 6.48H30.14l6.91-6.48-1.54-1.66-9.88 9.27 9.88 9.28 1.54-1.66-6.91-6.49h231.92l-6.91 6.49 1.53 1.66 9.89-9.28-9.89-9.27z" fill="#597f8c"/><path d="M28.81 134.86a3.18 3.18 0 0 1-1.37-.31 3.25 3.25 0 0 1-1.57-4.32l.66-1.39c11-22.68 28.21-34.61 55.8-38.67h.15L266.9 71.94a3.25 3.25 0 1 1 .64 6.47L83.2 96.6c-13.06 1.94-23.44 5.73-31.74 11.61-7.89 5.59-14.14 13.27-19.09 23.47l-.62 1.3a3.25 3.25 0 0 1-2.94 1.88z" fill="#c1c9cf"/><path d="M262.91 142.91a3.41 3.41 0 0 1-.89-.12 3.24 3.24 0 0 1-2.24-4 193 193 0 0 0 6.62-67.57c-1.4-16.82-4.7-27.2-4.73-27.3a3.25 3.25 0 1 1 6.18-2c.14.44 3.52 11 5 28.52a199.44 199.44 0 0 1-6.82 70.1 3.24 3.24 0 0 1-3.12 2.37z" fill="#fff"/><path d="M273.52 70.39c-1.49-17.58-4.9-28.23-5-28.68a3.91 3.91 0 0 0-2-2.27 3.86 3.86 0 0 0-3-.24 3.92 3.92 0 0 0-2.52 4.92c0 .11 3.32 10.48 4.71 27.15a192.53 192.53 0 0 1-6.6 67.34 3.92 3.92 0 0 0 3.76 5 3.93 3.93 0 0 0 3.77-2.86 200.17 200.17 0 0 0 6.88-70.36zM260.42 139a193.36 193.36 0 0 0 6.64-67.8c-1.39-16.69-4.62-27-4.76-27.44a2.59 2.59 0 0 1 1.7-3.3 2.72 2.72 0 0 1 .8-.12 2.52 2.52 0 0 1 1.17.28 2.57 2.57 0 0 1 1.28 1.5c.15.44 3.5 10.89 5 28.38a198.48 198.48 0 0 1-6.8 69.86 2.58 2.58 0 0 1-2.49 1.89 2.47 2.47 0 0 1-.7-.1 2.58 2.58 0 0 1-1.78-3.19z" fill="#376672"/></svg>