<svg xmlns="http://www.w3.org/2000/svg" viewBox="0 0 300 200" xmlns:v="https://vecta.io/nano"><path d="M285.39 134c-16.17-36.87-40.13-39.16-42.69-39.3l-64.16-7.59 80.23-9.49a3.46 3.46 0 0 0-.82-6.88l-108.9 12.89L41.81 70.94a3.47 3.47 0 0 0-.81 6.89l78.56 9.29-62.5 7.39c-2.56.14-26.52 2.43-42.69 39.31a3.47 3.47 0 0 0 6.35 2.78c14.85-33.87 35.86-35.13 36.72-35.16h.31l91.3-10.8 93 11h.31c.22 0 21.73 1 36.72 35.17a3.48 3.48 0 0 0 3.18 2.07 3.4 3.4 0 0 0 1.39-.29 3.47 3.47 0 0 0 1.74-4.59z" fill="#c1c9cf"/><path d="M263.22 157.18l-1.58 1.66 7.11 6.46H29.82l7.12-6.46-1.58-1.66-10.19 9.25 10.19 9.25 1.58-1.65-7.12-6.47h238.94l-7.12 6.47 1.58 1.65 10.18-9.25-10.18-9.25z" fill="#597f8c"/><path d="M269.69,70.3a2.82,2.82,0,1,1,0,5.63H263.1l.27.85a50.2,50.2,0,1,1-96,.9l.11-.38-.28-.27a25.28,25.28,0,0,0-34.82-.59l-.3.28.12.39a50.2,50.2,0,1,1-95.8-.33l.26-.85H29a2.82,2.82,0,1,1,0-5.63H39l.18-.36a50.18,50.18,0,0,1,90.22,0l.35.72.63-.49a31.36,31.36,0,0,1,38.83.43l.64.51.35-.74a50.18,50.18,0,0,1,90.43-.46l.18.36ZM260.08,92a44.57,44.57,0,1,0-44.56,44.57A44.62,44.62,0,0,0,260.08,92ZM128.84,92a44.57,44.57,0,1,0-44.57,44.57A44.62,44.62,0,0,0,128.84,92Z" fill="#fff"/><path d="M171 92a44.57 44.57 0 1 1 44.57 44.57A44.63 44.63 0 0 1 171 92zm1.3 0a43.27 43.27 0 1 0 43.27-43.27A43.31 43.31 0 0 0 172.25 92zm-44.76 0a43.27 43.27 0 1 0-43.27 43.26A43.32 43.32 0 0 0 127.54 92zM84.27 47.38A44.57 44.57 0 1 1 39.71 92a44.62 44.62 0 0 1 44.56-44.62zm131.25-5.63a50.51 50.51 0 0 0-45.33 28.65l-.35.74-.64-.51a31.36 31.36 0 0 0-38.83-.43l-.63.49-.35-.72a50.18 50.18 0 0 0-90.22 0l-.17.33H29a2.82 2.82 0 1 0 0 5.63h7.69l-.26.85a50.19 50.19 0 1 0 95.8.33l-.12-.39.3-.28a25.28 25.28 0 0 1 34.82.59l.28.27-.11.38a50.19 50.19 0 1 0 96-.9l-.27-.85h6.59a2.82 2.82 0 1 0 0-5.63h-8.92l-.18-.36a50.58 50.58 0 0 0-45.1-28.19zM166 77.69a24 24 0 0 0-32.45-.56 51.5 51.5 0 1 1-98.66.11H29A4.12 4.12 0 0 1 29 69h9.18a51.48 51.48 0 0 1 92-.3 32.65 32.65 0 0 1 39.16.41 51.48 51.48 0 0 1 92.27-.11h8.08a4.12 4.12 0 1 1 0 8.24h-4.82a51.5 51.5 0 1 1-98.83.45z" fill="#376672"/></svg>